# xmcd
#
# Track frame offsets:
#	150
#	11506
#	22710
#	33533
#	43350
#	54251
#	65846
#	77623
#	89309
#	101504
#	111598
#	121696
#	133937
#	143817
#	154176
#	163958
#	175132
#	186911
#	198131
#	209051
#
# Disc length: 2930 seconds
#
# Revision: 0
# Processed by: cddbd v1.5.2PL0 Copyright (c) Steve Scherf et al.
# Submitted via: EasyCDDAExtractor 16.0.6.1
#
DISCID=1b0b7014
DTITLE=Artisti Vari - Country and Western Ladies [CD07)
DYEAR=2014
DGENRE=country
TTITLE0=Wanda Jackson and Billy Gray - You Can't Have My Love
TTITLE1=Patsy Cline - Hungry For Love
TTITLE2=Skeeter Davis - Slave
TTITLE3=Jean Shepard - You'd Better Go
TTITLE4=The Maddox Brothers and Rose - Wild Wild Young Man
TTITLE5=Kitty Wells - Left To Right
TTITLE6=Patsy Montana - My Baby's Lullaby
TTITLE7=The Coon Creek Girls - Little Birdie
TTITLE8=Goldie Hill and Red Sovine - Are You Mine
TTITLE9=Jean Shepard - Sweet Temptation
TTITLE10=Wanda Jackson - A Date With Jerry
TTITLE11=Jeanne Black - He'll Have To Stay
TTITLE12=The Maddox Brothers and Rose - The Hoot-Owl Melody
TTITLE13=Goldie Hill - Why Talk To My Heart
TTITLE14=Skeeter Davis - The Devil's Doll
TTITLE15=Patsy Cline - Don't Ever Leave Again
TTITLE16=Patsy Montana - My Dear Old Arizona Home
TTITLE17=Kitty Wells - You Shalt Not Steal
TTITLE18=Jean Shepard and Ferlin Husky - Forgive Me John
TTITLE19=Goldie Hill - Treat Me Kind
EXTD=
EXTT0=
EXTT1=
EXTT2=
EXTT3=
EXTT4=
EXTT5=
EXTT6=
EXTT7=
EXTT8=
EXTT9=
EXTT10=
EXTT11=
EXTT12=
EXTT13=
EXTT14=
EXTT15=
EXTT16=
EXTT17=
EXTT18=
EXTT19=
PLAYORDER=
